<svg xmlns="http://www.w3.org/2000/svg" width="15.778" height="20" viewBox="0 0 15.778 20">
  <g id="File" transform="translate(0.5 0.5)">
    <path id="Path_312" data-name="Path 312" d="M178.029,168.4a4.685,4.685,0,0,0-4.618,4.75v9.5a4.686,4.686,0,0,0,4.618,4.75h5.542a4.685,4.685,0,0,0,4.618-4.75v-7.209a4.82,4.82,0,0,0-1.353-3.359l-2.228-2.291a4.554,4.554,0,0,0-3.265-1.391Z" transform="translate(-173.411 -168.397)" fill="none" stroke="#3d3d3d" stroke-linecap="round" stroke-linejoin="round" stroke-miterlimit="10" stroke-width="1"/>
    <path id="Path_313" data-name="Path 313" d="M182.679,172.113v1.073a2.111,2.111,0,0,0,2.111,2.111h1.073" transform="translate(-174.403 -168.652)" fill="none" stroke="#3d3d3d" stroke-linecap="round" stroke-linejoin="round" stroke-miterlimit="10" stroke-width="1"/>
    <line id="Line_47" data-name="Line 47" x2="4.471" transform="translate(5.154 12.268)" fill="none" stroke="#3d3d3d" stroke-linecap="round" stroke-miterlimit="10" stroke-width="1"/>
  </g>
</svg>
