<svg id="Cart" xmlns="http://www.w3.org/2000/svg" width="31" height="30" viewBox="0 0 31 30">
  <g id="Notification" transform="translate(0 6)">
    <rect id="Rectangle_301" data-name="Rectangle 301" width="24" height="24" fill="#fff" opacity="0"/>
    <g id="Notification-2" data-name="Notification" transform="translate(2 1.995)">
      <line id="Line_58" data-name="Line 58" x1="3.297" transform="translate(8.352 20.01)" fill="none" stroke="#3d3d3d" stroke-linecap="round" stroke-linejoin="round" stroke-width="1"/>
      <line id="Line_59" data-name="Line 59" y2="3.297" transform="translate(10 5.362)" fill="none" stroke="#3d3d3d" stroke-linecap="round" stroke-linejoin="round" stroke-width="1"/>
      <path id="Path_329" data-name="Path 329" d="M105.286,269.759h0a2.392,2.392,0,0,1-2.392,2.392H87.678a2.392,2.392,0,0,1-2.392-2.392h0a2.392,2.392,0,0,1,.985-1.934h0a4.286,4.286,0,0,0,1.765-3.466v-2.081a7.428,7.428,0,0,1,6.729-7.5,7.255,7.255,0,0,1,7.771,7.232v2.348a4.286,4.286,0,0,0,1.765,3.466h0A2.392,2.392,0,0,1,105.286,269.759Z" transform="translate(-85.286 -254.761)" fill="none" stroke="#3d3d3d" stroke-linecap="round" stroke-linejoin="round" stroke-miterlimit="10" stroke-width="1.5"/>
    </g>
  </g>
  <g id="Group_1" data-name="Group 1" transform="translate(13)">
    <circle id="Oval" cx="9" cy="9" r="9" fill="#1a6ed8"/>
    <text id="_8" data-name="8" transform="translate(5.5)" fill="#fff" font-size="12" font-family="Montserrat-SemiBold, Montserrat" font-weight="600"><tspan x="0.088" y="12">8</tspan></text>
  </g>
</svg>
