<svg xmlns="http://www.w3.org/2000/svg" width="19.15" height="18.497" viewBox="0 0 19.15 18.497">
  <g id="Group_8491" data-name="Group 8491" transform="translate(0.15 0.15)">
    <g id="Group_8518" data-name="Group 8518" transform="translate(0 0)">
      <g id="Group_8517" data-name="Group 8517">
        <path id="Path_54651" data-name="Path 54651" d="M136.684,83.534a.39.39,0,0,0-.261-.166c-.547,0-5.254-.19-5.254-5.658a.309.309,0,0,0-.618,0c0,5.468-4.707,5.658-5.23,5.658a.27.27,0,0,0-.19.071c-.048.024-.071.071-.1.1a.353.353,0,0,0,0,.309.33.33,0,0,0,.285.166h.024c.547,0,5.23.19,5.23,5.658a.309.309,0,1,0,.618,0c0-5.444,4.683-5.658,5.23-5.658a.363.363,0,0,0,.285-.166A.292.292,0,0,0,136.684,83.534Zm-5.824,3.8a5.426,5.426,0,0,0-3.708-3.661,5.426,5.426,0,0,0,3.708-3.661,5.426,5.426,0,0,0,3.708,3.661A5.426,5.426,0,0,0,130.86,87.338Z" transform="translate(-117.896 -73.265)" fill="#3d3d3d" stroke="#3d3d3d" stroke-width="0.3"/>
        <path id="Path_54652" data-name="Path 54652" d="M52.632,12.642a.32.32,0,0,0,.309-.333A.315.315,0,0,0,52.632,12,2.816,2.816,0,0,1,49.78,8.91a.309.309,0,0,0-.618,0A2.816,2.816,0,0,1,46.309,12h-.024a.31.31,0,0,0-.285.309.315.315,0,0,0,.309.309,2.806,2.806,0,0,1,2.853,3.09.315.315,0,0,0,.309.309.274.274,0,0,0,.285-.285,2.816,2.816,0,0,1,2.853-3.09h.024ZM49.447,14a3.188,3.188,0,0,0-1.712-1.688,3.2,3.2,0,0,0,1.712-1.688,3.188,3.188,0,0,0,1.712,1.688A3.2,3.2,0,0,0,49.447,14Z" transform="translate(-43.266 -8.601)" fill="#3d3d3d" stroke="#3d3d3d" stroke-width="0.3"/>
        <path id="Path_54653" data-name="Path 54653" d="M6.632,192.4a2.816,2.816,0,0,1-2.853-3.09.309.309,0,1,0-.618,0A2.816,2.816,0,0,1,.309,192.4H.285a.31.31,0,0,0-.285.309.315.315,0,0,0,.309.309,2.806,2.806,0,0,1,2.853,3.09.315.315,0,0,0,.309.309c.143.048.285-.1.285-.285a2.816,2.816,0,0,1,2.853-3.09h.024a.32.32,0,0,0,.309-.333A.315.315,0,0,0,6.632,192.4Zm-3.185,2.021a3.267,3.267,0,0,0-1.712-1.688,3.2,3.2,0,0,0,1.712-1.688,3.188,3.188,0,0,0,1.712,1.688A3.2,3.2,0,0,0,3.447,194.421Z" transform="translate(0 -178.232)" fill="#3d3d3d" stroke="#3d3d3d" stroke-width="0.3"/>
      </g>
    </g>
  </g>
</svg>
